<?xml version="1.0" encoding="UTF-8"?>
<svg height="128px" viewBox="0 0 128 128" width="128px" xmlns="http://www.w3.org/2000/svg" xmlns:xlink="http://www.w3.org/1999/xlink">
    <filter id="a" height="100%" width="100%" x="0%" y="0%">
        <feColorMatrix color-interpolation-filters="sRGB" values="0 0 0 0 1 0 0 0 0 1 0 0 0 0 1 0 0 0 1 0"/>
    </filter>
    <mask id="b">
        <g filter="url(#a)">
            <rect fill-opacity="0.35" height="153.6" width="153.6" x="-12.8" y="-12.8"/>
        </g>
    </mask>
    <clipPath id="c">
        <rect height="128" width="128"/>
    </clipPath>
    <mask id="d">
        <g filter="url(#a)">
            <rect fill-opacity="0.9" height="153.6" width="153.6" x="-12.8" y="-12.8"/>
        </g>
    </mask>
    <clipPath id="e">
        <rect height="128" width="128"/>
    </clipPath>
    <path d="m 28 12 h 72 c 11.046875 0 20 8.953125 20 20 v 56 c 0 11.046875 -8.953125 20 -20 20 h -72 c -11.046875 0 -20 -8.953125 -20 -20 v -56 c 0 -11.046875 8.953125 -20 20 -20 z m 0 0" fill="#3584e4"/>
    <g mask="url(#b)">
        <g clip-path="url(#c)">
            <path d="m 28 60 h 72 c 11.046875 0 20 8.953125 20 20 v 8 c 0 11.046875 -8.953125 20 -20 20 h -72 c -11.046875 0 -20 -8.953125 -20 -20 v -8 c 0 -11.046875 8.953125 -20 20 -20 z m 0 0" fill="#1c71d8"/>
        </g>
    </g>
    <g mask="url(#d)">
        <g clip-path="url(#e)" fill="#ffffff">
            <path d="m 38 32 h 8 c 1.105469 0 2 0.894531 2 2 v 8 c 0 1.105469 -0.894531 2 -2 2 h -8 c -1.105469 0 -2 -0.894531 -2 -2 v -8 c 0 -1.105469 0.894531 -2 2 -2 z m 0 0"/>
            <path d="m 54 32 h 8 c 1.105469 0 2 0.894531 2 2 v 8 c 0 1.105469 -0.894531 2 -2 2 h -8 c -1.105469 0 -2 -0.894531 -2 -2 v -8 c 0 -1.105469 0.894531 -2 2 -2 z m 0 0"/>
            <path d="m 70 32 h 8 c 1.105469 0 2 0.894531 2 2 v 8 c 0 1.105469 -0.894531 2 -2 2 h -8 c -1.105469 0 -2 -0.894531 -2 -2 v -8 c 0 -1.105469 0.894531 -2 2 -2 z m 0 0"/>
            <path d="m 38 48 h 8 c 1.105469 0 2 0.894531 2 2 v 8 c 0 1.105469 -0.894531 2 -2 2 h -8 c -1.105469 0 -2 -0.894531 -2 -2 v -8 c 0 -1.105469 0.894531 -2 2 -2 z m 0 0"/>
            <path d="m 54 48 h 8 c 1.105469 0 2 0.894531 2 2 v 8 c 0 1.105469 -0.894531 2 -2 2 h -8 c -1.105469 0 -2 -0.894531 -2 -2 v -8 c 0 -1.105469 0.894531 -2 2 -2 z m 0 0"/>
            <path d="m 70 48 h 8 c 1.105469 0 2 0.894531 2 2 v 8 c 0 1.105469 -0.894531 2 -2 2 h -8 c -1.105469 0 -2 -0.894531 -2 -2 v -8 c 0 -1.105469 0.894531 -2 2 -2 z m 0 0"/>
        </g>
    </g>
    <path d="m 112 92 c 0 11.046875 -8.953125 20 -20 20 s -20 -8.953125 -20 -20 s 8.953125 -20 20 -20 s 20 8.953125 20 20 z m 0 0" fill="#ff7800"/>
    <g fill="#ffffff">
        <path d="m 90 82 h 4 v 20 h -4 z m 0 0"/>
        <path d="m 82 90 h 20 v 4 h -20 z m 0 0"/>
    </g>
</svg>
