<?xml version="1.0" encoding="UTF-8"?>
<svg height="128px" viewBox="0 0 128 128" width="128px" xmlns="http://www.w3.org/2000/svg" xmlns:xlink="http://www.w3.org/1999/xlink">
    <defs>
        <filter id="a" height="100%" width="100%" x="0%" y="0%">
            <feColorMatrix color-interpolation-filters="sRGB" values="0 0 0 0 1 0 0 0 0 1 0 0 0 0 1 0 0 0 1 0"/>
        </filter>
        <mask id="b">
            <g filter="url(#a)">
                <rect fill-opacity="0.35" height="153.6" width="153.6" x="-12.8" y="-12.8"/>
            </g>
        </mask>
        <mask id="c">
            <g filter="url(#a)">
                <rect fill-opacity="0.9" height="153.6" width="153.6" x="-12.8" y="-12.8"/>
            </g>
        </mask>
        <mask id="d">
            <g filter="url(#a)">
                <rect fill-opacity="0.35" height="221.184" width="221.184" x="-46.592" y="-46.592"/>
            </g>
        </mask>
        <clipPath id="e">
            <rect height="128" width="128"/>
        </clipPath>
        <g id="f" clip-path="url(#e)">
            <path d="m 28 60 h 72 c 11.046875 0 20 8.953125 20 20 v 8 c 0 11.046875 -8.953125 20 -20 20 h -72 c -11.046875 0 -20 -8.953125 -20 -20 v -8 c 0 -11.046875 8.953125 -20 20 -20 z m 0 0" fill="#1c71d8"/>
        </g>
        <mask id="g">
            <g filter="url(#a)">
                <rect fill-opacity="0.9" height="221.184" width="221.184" x="-46.592" y="-46.592"/>
            </g>
        </mask>
        <clipPath id="h">
            <rect height="128" width="128"/>
        </clipPath>
        <g id="i" clip-path="url(#h)">
            <path d="m 38 32 h 8 c 1.105469 0 2 0.894531 2 2 v 8 c 0 1.105469 -0.894531 2 -2 2 h -8 c -1.105469 0 -2 -0.894531 -2 -2 v -8 c 0 -1.105469 0.894531 -2 2 -2 z m 0 0" fill="#ffffff"/>
            <path d="m 54 32 h 8 c 1.105469 0 2 0.894531 2 2 v 8 c 0 1.105469 -0.894531 2 -2 2 h -8 c -1.105469 0 -2 -0.894531 -2 -2 v -8 c 0 -1.105469 0.894531 -2 2 -2 z m 0 0" fill="#ffffff"/>
            <path d="m 70 32 h 8 c 1.105469 0 2 0.894531 2 2 v 8 c 0 1.105469 -0.894531 2 -2 2 h -8 c -1.105469 0 -2 -0.894531 -2 -2 v -8 c 0 -1.105469 0.894531 -2 2 -2 z m 0 0" fill="#ffffff"/>
            <path d="m 38 48 h 8 c 1.105469 0 2 0.894531 2 2 v 8 c 0 1.105469 -0.894531 2 -2 2 h -8 c -1.105469 0 -2 -0.894531 -2 -2 v -8 c 0 -1.105469 0.894531 -2 2 -2 z m 0 0" fill="#ffffff"/>
            <path d="m 54 48 h 8 c 1.105469 0 2 0.894531 2 2 v 8 c 0 1.105469 -0.894531 2 -2 2 h -8 c -1.105469 0 -2 -0.894531 -2 -2 v -8 c 0 -1.105469 0.894531 -2 2 -2 z m 0 0" fill="#ffffff"/>
            <path d="m 70 48 h 8 c 1.105469 0 2 0.894531 2 2 v 8 c 0 1.105469 -0.894531 2 -2 2 h -8 c -1.105469 0 -2 -0.894531 -2 -2 v -8 c 0 -1.105469 0.894531 -2 2 -2 z m 0 0" fill="#ffffff"/>
        </g>
        <clipPath id="j">
            <rect height="128" width="128"/>
        </clipPath>
        <clipPath id="k">
            <rect height="128" width="128"/>
        </clipPath>
        <mask id="l">
            <g filter="url(#a)">
                <g clip-path="url(#k)" filter="url(#a)">
                    <g clip-path="url(#j)">
                        <path d="m 28 12 h 72 c 11.046875 0 20 8.953125 20 20 v 56 c 0 11.046875 -8.953125 20 -20 20 h -72 c -11.046875 0 -20 -8.953125 -20 -20 v -56 c 0 -11.046875 8.953125 -20 20 -20 z m 0 0" fill="#3584e4"/>
                        <g mask="url(#d)">
                            <use xlink:href="#f"/>
                        </g>
                        <g mask="url(#g)">
                            <use xlink:href="#i"/>
                        </g>
                        <path d="m 112 92 c 0 11.046875 -8.953125 20 -20 20 s -20 -8.953125 -20 -20 s 8.953125 -20 20 -20 s 20 8.953125 20 20 z m 0 0" fill="#ff7800"/>
                        <path d="m 90 82 h 4 v 20 h -4 z m 0 0" fill="#ffffff"/>
                        <path d="m 82 90 h 20 v 4 h -20 z m 0 0" fill="#ffffff"/>
                    </g>
                </g>
            </g>
        </mask>
        <mask id="m">
            <g filter="url(#a)">
                <rect fill-opacity="0.8" height="184.32" width="184.32" x="-28.16" y="-28.16"/>
            </g>
        </mask>
        <linearGradient id="n" gradientTransform="matrix(0 0.37 -0.98462 0 295.38501 -30.360001)" gradientUnits="userSpaceOnUse" x1="300" x2="428" y1="235" y2="235">
            <stop offset="0" stop-color="#f9f06b"/>
            <stop offset="1" stop-color="#f5c211"/>
        </linearGradient>
        <clipPath id="o">
            <rect height="128" width="128"/>
        </clipPath>
        <clipPath id="p">
            <rect height="128" width="128"/>
        </clipPath>
    </defs>
    <path d="m 28 12 h 72 c 11.046875 0 20 8.953125 20 20 v 56 c 0 11.046875 -8.953125 20 -20 20 h -72 c -11.046875 0 -20 -8.953125 -20 -20 v -56 c 0 -11.046875 8.953125 -20 20 -20 z m 0 0" fill="#3584e4"/>
    <g mask="url(#b)">
        <use xlink:href="#f"/>
    </g>
    <g mask="url(#c)">
        <use xlink:href="#i"/>
    </g>
    <path d="m 112 92 c 0 11.046875 -8.953125 20 -20 20 s -20 -8.953125 -20 -20 s 8.953125 -20 20 -20 s 20 8.953125 20 20 z m 0 0" fill="#ff7800"/>
    <path d="m 90 82 h 4 v 20 h -4 z m 0 0" fill="#ffffff"/>
    <path d="m 82 90 h 20 v 4 h -20 z m 0 0" fill="#ffffff"/>
    <g mask="url(#l)">
        <g clip-path="url(#p)">
            <g mask="url(#m)">
                <g clip-path="url(#o)">
                    <path d="m 128 80.640625 v 47.359375 h -128 v -47.359375 z m 0 0" fill="url(#n)"/>
                    <path d="m 13.308594 80.640625 l 47.355468 47.359375 h 21.214844 l -47.359375 -47.359375 z m 42.421875 0 l 47.363281 47.359375 h 21.214844 l -47.363282 -47.359375 z m 42.429687 0 l 29.839844 29.839844 v -21.210938 l -8.628906 -8.628906 z m -98.160156 7.90625 v 21.214844 l 18.238281 18.238281 h 21.214844 z m 0 0"/>
                </g>
            </g>
        </g>
    </g>
</svg>
