<?xml version="1.0" encoding="UTF-8"?>
<svg height="128px" viewBox="0 0 128 128" width="128px"
    xmlns="https://www.w3.org/2000/svg"
    xmlns:xlink="https://www.w3.org/1999/xlink">
    <filter id="a" height="100%" width="100%" x="0%" y="0%">
        <feColorMatrix color-interpolation-filters="sRGB" values="0 0 0 0 1 0 0 0 0 1 0 0 0 0 1 0 0 0 1 0"/>
    </filter>
    <clipPath id="b">
        <path d="m 0 0 h 128 v 128 h -128 z m 0 0"/>
    </clipPath>
    <clipPath id="c">
        <rect height="128" width="128"/>
    </clipPath>
    <clipPath id="d">
        <rect height="128" width="128"/>
    </clipPath>
    <mask id="e">
        <g filter="url(#a)">
            <g clip-path="url(#d)" filter="url(#a)">
                <g clip-path="url(#c)">
                    <g clip-path="url(#b)">
                        <path d="m 28 20 h 72 c 6.628906 0 12 5.371094 12 12 v 48 c 0 6.628906 -5.371094 12 -12 12 h -72 c -6.628906 0 -12 -5.371094 -12 -12 v -48 c 0 -6.628906 5.371094 -12 12 -12 z m 0 0" fill="none" stroke="#000000" stroke-width="8"/>
                    </g>
                    <path d="m 36 36 h 10 v 10 h -10 z m 0 0"/>
                    <path d="m 52 36 h 10 v 10 h -10 z m 0 0"/>
                    <path d="m 68 36 h 10 v 10 h -10 z m 0 0"/>
                    <path d="m 36 52 h 10 v 10 h -10 z m 0 0"/>
                    <path d="m 52 52 h 10 v 10 h -10 z m 0 0"/>
                    <path d="m 68 52 h 10 v 10 h -10 z m 0 0"/>
                    <path d="m 92 80 h 4 v 24 h -4 z m 0 0"/>
                    <path d="m 80 92 h 24 v 4 h -24 z m 0 0"/>
                </g>
            </g>
        </g>
    </mask>
    <mask id="f">
        <g filter="url(#a)">
            <rect fill-opacity="0.8" height="184.32" width="184.32" x="-28.16" y="-28.16"/>
        </g>
    </mask>
    <linearGradient id="g" gradientTransform="matrix(0 0.37 -0.98462 0 295.38501 -30.360001)" gradientUnits="userSpaceOnUse" x1="300" x2="428" y1="235" y2="235">
        <stop offset="0" stop-color="#f9f06b"/>
        <stop offset="1" stop-color="#f5c211"/>
    </linearGradient>
    <clipPath id="h">
        <rect height="128" width="128"/>
    </clipPath>
    <clipPath id="i">
        <rect height="128" width="128"/>
    </clipPath>
    <path d="m 28 20 h 72 c 6.628906 0 12 5.371094 12 12 v 48 c 0 6.628906 -5.371094 12 -12 12 h -72 c -6.628906 0 -12 -5.371094 -12 -12 v -48 c 0 -6.628906 5.371094 -12 12 -12 z m 0 0" fill="none" stroke="#000000" stroke-width="8"/>
    <path d="m 36 36 h 10 v 10 h -10 z m 0 0"/>
    <path d="m 52 36 h 10 v 10 h -10 z m 0 0"/>
    <path d="m 68 36 h 10 v 10 h -10 z m 0 0"/>
    <path d="m 36 52 h 10 v 10 h -10 z m 0 0"/>
    <path d="m 52 52 h 10 v 10 h -10 z m 0 0"/>
    <path d="m 68 52 h 10 v 10 h -10 z m 0 0"/>
    <path d="m 92 80 h 4 v 24 h -4 z m 0 0"/>
    <path d="m 80 92 h 24 v 4 h -24 z m 0 0"/>
    <g mask="url(#e)">
        <g clip-path="url(#i)">
            <g mask="url(#f)">
                <g clip-path="url(#h)">
                    <path d="m 128 80.640625 v 47.359375 h -128 v -47.359375 z m 0 0" fill="url(#g)"/>
                    <path d="m 13.308594 80.640625 l 47.355468 47.359375 h 21.214844 l -47.359375 -47.359375 z m 42.421875 0 l 47.363281 47.359375 h 21.214844 l -47.363282 -47.359375 z m 42.429687 0 l 29.839844 29.839844 v -21.210938 l -8.628906 -8.628906 z m -98.160156 7.90625 v 21.214844 l 18.238281 18.238281 h 21.214844 z m 0 0"/>
                </g>
            </g>
        </g>
    </g>
</svg>
