<?xml version="1.0" encoding="UTF-8"?>
<svg height="128px" viewBox="0 0 128 128" width="128px" xmlns="http://www.w3.org/2000/svg" xmlns:xlink="http://www.w3.org/1999/xlink">
    <defs>
        <filter id="a" height="100%" width="100%" x="0%" y="0%">
            <feColorMatrix color-interpolation-filters="sRGB" values="0 0 0 0 1 0 0 0 0 1 0 0 0 0 1 0 0 0 1 0"/>
        </filter>
        <mask id="b">
            <g filter="url(#a)">
                <rect fill-opacity="0.08" height="153.6" width="153.6" x="-12.8" y="-12.8"/>
            </g>
        </mask>
        <mask id="c">
            <g filter="url(#a)">
                <rect fill-opacity="0.45" height="153.6" width="153.6" x="-12.8" y="-12.8"/>
            </g>
        </mask>
        <mask id="d">
            <g filter="url(#a)">
                <rect fill-opacity="0.25" height="153.6" width="153.6" x="-12.8" y="-12.8"/>
            </g>
        </mask>
        <mask id="e">
            <g filter="url(#a)">
                <rect fill-opacity="0.95" height="153.6" width="153.6" x="-12.8" y="-12.8"/>
            </g>
        </mask>
        <mask id="f">
            <g filter="url(#a)">
                <rect fill-opacity="0.15" height="153.6" width="153.6" x="-12.8" y="-12.8"/>
            </g>
        </mask>
        <mask id="g">
            <g filter="url(#a)">
                <rect fill-opacity="0.15" height="153.6" width="153.6" x="-12.8" y="-12.8"/>
            </g>
        </mask>
        <mask id="h">
            <g filter="url(#a)">
                <rect fill-opacity="0.08" height="221.184" width="221.184" x="-46.592" y="-46.592"/>
            </g>
        </mask>
        <clipPath id="i">
            <rect height="128" width="128"/>
        </clipPath>
        <g id="j" clip-path="url(#i)">
            <path d="m 28 12 h 72 c 11.046875 0 20 8.953125 20 20 v 8 c 0 11.046875 -8.953125 20 -20 20 h -72 c -11.046875 0 -20 -8.953125 -20 -20 v -8 c 0 -11.046875 8.953125 -20 20 -20 z m 0 0" fill="#ffffff"/>
        </g>
        <mask id="k">
            <g filter="url(#a)">
                <rect fill-opacity="0.45" height="221.184" width="221.184" x="-46.592" y="-46.592"/>
            </g>
        </mask>
        <clipPath id="l">
            <rect height="128" width="128"/>
        </clipPath>
        <g id="m" clip-path="url(#l)">
            <path d="m 28 64 h 72 c 11.046875 0 20 8.953125 20 20 v 4 c 0 11.046875 -8.953125 20 -20 20 h -72 c -11.046875 0 -20 -8.953125 -20 -20 v -4 c 0 -11.046875 8.953125 -20 20 -20 z m 0 0" fill="#1c71d8"/>
        </g>
        <mask id="n">
            <g filter="url(#a)">
                <rect fill-opacity="0.25" height="221.184" width="221.184" x="-46.592" y="-46.592"/>
            </g>
        </mask>
        <clipPath id="o">
            <rect height="128" width="128"/>
        </clipPath>
        <g id="p" clip-path="url(#o)">
            <path d="m 32 52 h 64 c 6.628906 0 12 5.371094 12 12 v 4 c 0 6.628906 -5.371094 12 -12 12 h -64 c -6.628906 0 -12 -5.371094 -12 -12 v -4 c 0 -6.628906 5.371094 -12 12 -12 z m 0 0" fill="#1c71d8"/>
        </g>
        <mask id="q">
            <g filter="url(#a)">
                <rect fill-opacity="0.95" height="221.184" width="221.184" x="-46.592" y="-46.592"/>
            </g>
        </mask>
        <clipPath id="r">
            <rect height="128" width="128"/>
        </clipPath>
        <g id="s" clip-path="url(#r)">
            <path d="m 42 36 h 6 c 1.105469 0 2 0.894531 2 2 v 6 c 0 1.105469 -0.894531 2 -2 2 h -6 c -1.105469 0 -2 -0.894531 -2 -2 v -6 c 0 -1.105469 0.894531 -2 2 -2 z m 0 0" fill="#ffffff"/>
            <path d="m 56 36 h 6 c 1.105469 0 2 0.894531 2 2 v 6 c 0 1.105469 -0.894531 2 -2 2 h -6 c -1.105469 0 -2 -0.894531 -2 -2 v -6 c 0 -1.105469 0.894531 -2 2 -2 z m 0 0" fill="#ffffff"/>
            <path d="m 70 36 h 6 c 1.105469 0 2 0.894531 2 2 v 6 c 0 1.105469 -0.894531 2 -2 2 h -6 c -1.105469 0 -2 -0.894531 -2 -2 v -6 c 0 -1.105469 0.894531 -2 2 -2 z m 0 0" fill="#ffffff"/>
            <path d="m 42 50 h 6 c 1.105469 0 2 0.894531 2 2 v 6 c 0 1.105469 -0.894531 2 -2 2 h -6 c -1.105469 0 -2 -0.894531 -2 -2 v -6 c 0 -1.105469 0.894531 -2 2 -2 z m 0 0" fill="#ffffff"/>
            <path d="m 56 50 h 6 c 1.105469 0 2 0.894531 2 2 v 6 c 0 1.105469 -0.894531 2 -2 2 h -6 c -1.105469 0 -2 -0.894531 -2 -2 v -6 c 0 -1.105469 0.894531 -2 2 -2 z m 0 0" fill="#ffffff"/>
            <path d="m 70 50 h 6 c 1.105469 0 2 0.894531 2 2 v 6 c 0 1.105469 -0.894531 2 -2 2 h -6 c -1.105469 0 -2 -0.894531 -2 -2 v -6 c 0 -1.105469 0.894531 -2 2 -2 z m 0 0" fill="#ffffff"/>
        </g>
        <mask id="t">
            <g filter="url(#a)">
                <rect fill-opacity="0.15" height="221.184" width="221.184" x="-46.592" y="-46.592"/>
            </g>
        </mask>
        <clipPath id="u">
            <rect height="128" width="128"/>
        </clipPath>
        <g id="v" clip-path="url(#u)">
            <path d="m 106 86 c 0 6.628906 -5.371094 12 -12 12 s -12 -5.371094 -12 -12 s 5.371094 -12 12 -12 s 12 5.371094 12 12 z m 0 0" fill="#ffffff"/>
        </g>
        <mask id="w">
            <g filter="url(#a)">
                <rect fill-opacity="0.15" height="221.184" width="221.184" x="-46.592" y="-46.592"/>
            </g>
        </mask>
        <clipPath id="x">
            <rect height="128" width="128"/>
        </clipPath>
        <g id="y" clip-path="url(#x)">
            <path d="m 108 100 c 0 3.3125 -6.269531 6 -14 6 s -14 -2.6875 -14 -6 s 6.269531 -6 14 -6 s 14 2.6875 14 6 z m 0 0"/>
        </g>
        <clipPath id="z">
            <rect height="128" width="128"/>
        </clipPath>
        <clipPath id="A">
            <rect height="128" width="128"/>
        </clipPath>
        <mask id="B">
            <g filter="url(#a)">
                <g clip-path="url(#A)" filter="url(#a)">
                    <g clip-path="url(#z)">
                        <path d="m 28 12 h 72 c 11.046875 0 20 8.953125 20 20 v 56 c 0 11.046875 -8.953125 20 -20 20 h -72 c -11.046875 0 -20 -8.953125 -20 -20 v -56 c 0 -11.046875 8.953125 -20 20 -20 z m 0 0" fill="#3584e4"/>
                        <g mask="url(#h)">
                            <use xlink:href="#j"/>
                        </g>
                        <g mask="url(#k)">
                            <use xlink:href="#m"/>
                        </g>
                        <path d="m 32 24 h 64 c 6.628906 0 12 5.371094 12 12 v 32 c 0 6.628906 -5.371094 12 -12 12 h -64 c -6.628906 0 -12 -5.371094 -12 -12 v -32 c 0 -6.628906 5.371094 -12 12 -12 z m 0 0" fill="#4c97ff"/>
                        <g mask="url(#n)">
                            <use xlink:href="#p"/>
                        </g>
                        <g mask="url(#q)">
                            <use xlink:href="#s"/>
                        </g>
                        <path d="m 112 92 c 0 9.941406 -8.058594 18 -18 18 s -18 -8.058594 -18 -18 s 8.058594 -18 18 -18 s 18 8.058594 18 18 z m 0 0" fill="#ff7800"/>
                        <g mask="url(#t)">
                            <use xlink:href="#v"/>
                        </g>
                        <g mask="url(#w)">
                            <use xlink:href="#y"/>
                        </g>
                        <path d="m 92 82 h 4 v 20 h -4 z m 0 0" fill="#ffffff"/>
                        <path d="m 84 90 h 20 v 4 h -20 z m 0 0" fill="#ffffff"/>
                    </g>
                </g>
            </g>
        </mask>
        <mask id="C">
            <g filter="url(#a)">
                <rect fill-opacity="0.8" height="184.32" width="184.32" x="-28.16" y="-28.16"/>
            </g>
        </mask>
        <linearGradient id="D" gradientTransform="matrix(0 0.37 -0.98462 0 295.38501 -30.360001)" gradientUnits="userSpaceOnUse" x1="300" x2="428" y1="235" y2="235">
            <stop offset="0" stop-color="#f9f06b"/>
            <stop offset="1" stop-color="#f5c211"/>
        </linearGradient>
        <clipPath id="E">
            <rect height="128" width="128"/>
        </clipPath>
        <clipPath id="F">
            <rect height="128" width="128"/>
        </clipPath>
    </defs>
    <path d="m 28 12 h 72 c 11.046875 0 20 8.953125 20 20 v 56 c 0 11.046875 -8.953125 20 -20 20 h -72 c -11.046875 0 -20 -8.953125 -20 -20 v -56 c 0 -11.046875 8.953125 -20 20 -20 z m 0 0" fill="#3584e4"/>
    <g mask="url(#b)">
        <use xlink:href="#j"/>
    </g>
    <g mask="url(#c)">
        <use xlink:href="#m"/>
    </g>
    <path d="m 32 24 h 64 c 6.628906 0 12 5.371094 12 12 v 32 c 0 6.628906 -5.371094 12 -12 12 h -64 c -6.628906 0 -12 -5.371094 -12 -12 v -32 c 0 -6.628906 5.371094 -12 12 -12 z m 0 0" fill="#4c97ff"/>
    <g mask="url(#d)">
        <use xlink:href="#p"/>
    </g>
    <g mask="url(#e)">
        <use xlink:href="#s"/>
    </g>
    <path d="m 112 92 c 0 9.941406 -8.058594 18 -18 18 s -18 -8.058594 -18 -18 s 8.058594 -18 18 -18 s 18 8.058594 18 18 z m 0 0" fill="#ff7800"/>
    <g mask="url(#f)">
        <use xlink:href="#v"/>
    </g>
    <g mask="url(#g)">
        <use xlink:href="#y"/>
    </g>
    <path d="m 92 82 h 4 v 20 h -4 z m 0 0" fill="#ffffff"/>
    <path d="m 84 90 h 20 v 4 h -20 z m 0 0" fill="#ffffff"/>
    <g mask="url(#B)">
        <g clip-path="url(#F)">
            <g mask="url(#C)">
                <g clip-path="url(#E)">
                    <path d="m 128 80.640625 v 47.359375 h -128 v -47.359375 z m 0 0" fill="url(#D)"/>
                    <path d="m 13.308594 80.640625 l 47.355468 47.359375 h 21.214844 l -47.359375 -47.359375 z m 42.421875 0 l 47.363281 47.359375 h 21.214844 l -47.363282 -47.359375 z m 42.429687 0 l 29.839844 29.839844 v -21.210938 l -8.628906 -8.628906 z m -98.160156 7.90625 v 21.214844 l 18.238281 18.238281 h 21.214844 z m 0 0"/>
                </g>
            </g>
        </g>
    </g>
</svg>
